<?xml version="1.0" encoding="utf-8"?>
<svg version="1.1" id="Layer_1" xmlns="http://www.w3.org/2000/svg" xmlns:xlink="http://www.w3.org/1999/xlink" x="0px" y="0px"
	 viewBox="0 0 511.8 511.8" style="enable-background:new 0 0 511.8 511.8;" xml:space="preserve">
<style type="text/css">
	.st0{fill:#FFFFFF;}
	.st1{fill:#D8DDE6;}
	.st2{fill:#DFA22F;}
	.st3{fill:#3CB187;}
	.st4{fill:#CE1E5B;}
	.st5{fill:#392538;}
	.st6{fill:#BB242A;}
	.st7{fill:#72C5CD;}
	.st8{fill:#248C73;}
	.st9{fill:#62803A;}
</style>
<g>
	<path class="st0" d="M44.1,501.8c-18.8,0-34.1-15.3-34.1-34.1V44.1C10,25.3,25.3,10,44.1,10h423.7c18.8,0,34.1,15.3,34.1,34.1
		v423.7c0,18.8-15.3,34.1-34.1,34.1H44.1z"/>
	<path class="st1" d="M467.8,20c13.3,0,24.1,10.8,24.1,24.1v423.7c0,13.3-10.8,24.1-24.1,24.1H44.1C30.8,491.8,20,481,20,467.8V44.1
		C20,30.8,30.8,20,44.1,20H467.8 M467.8,0H44.1C19.7,0,0,19.7,0,44.1v423.7c0,24.3,19.7,44.1,44.1,44.1h423.7
		c24.3,0,44.1-19.7,44.1-44.1V44.1C511.8,19.7,492.1,0,467.8,0L467.8,0z"/>
</g>
<g>
	<path class="st2" d="M296.5,136c-4.2-12.8-17.9-19.8-30.7-15.6c-12.8,4.2-19.8,17.9-15.6,30.7l63,193.8c4.3,12,17.2,18.7,29.6,15.1
		c12.9-3.7,20.8-17.5,16.7-30.1C359.3,329.3,296.5,136,296.5,136"/>
	<path class="st3" d="M198.9,167.8c-4.2-12.8-17.9-19.8-30.7-15.6c-12.8,4.2-19.8,17.9-15.6,30.7l63,193.8
		c4.3,12,17.2,18.7,29.6,15.1c12.9-3.7,20.8-17.4,16.7-30.1C261.7,361,198.9,167.8,198.9,167.8"/>
	<path class="st4" d="M375.8,296.5c12.8-4.2,19.8-17.9,15.6-30.7c-4.2-12.8-17.9-19.8-30.7-15.6l-193.8,63
		c-12,4.3-18.7,17.2-15.1,29.6c3.7,12.9,17.5,20.8,30.1,16.7C182.5,359.3,375.8,296.5,375.8,296.5"/>
	<path class="st5" d="M207.4,351.3c12.6-4.1,28.9-9.4,46.3-15c-4.1-12.6-9.4-28.9-15-46.3l-46.3,15.1L207.4,351.3"/>
	<path class="st6" d="M304.9,319.5c17.5-5.7,33.8-11,46.3-15c-4.1-12.6-9.4-28.9-15.1-46.3l-46.3,15.1L304.9,319.5"/>
	<path class="st7" d="M344.1,198.9c12.8-4.2,19.8-17.9,15.6-30.7c-4.2-12.8-17.9-19.8-30.7-15.6l-193.8,63
		c-12,4.3-18.7,17.2-15.1,29.6c3.7,12.9,17.4,20.8,30.1,16.7C150.8,261.7,344.1,198.9,344.1,198.9"/>
	<path class="st8" d="M175.6,253.7c12.6-4.1,28.9-9.4,46.3-15c-5.7-17.5-11-33.8-15-46.3l-46.3,15.1L175.6,253.7"/>
	<path class="st9" d="M273.2,222c17.5-5.7,33.8-11,46.3-15.1c-5.7-17.5-11-33.8-15.1-46.3l-46.3,15.1L273.2,222"/>
</g>
</svg>